<?xml version="1.0" encoding="UTF-8" standalone="no"?>
<svg
   xmlns:dc="http://purl.org/dc/elements/1.1/"
   xmlns:cc="http://creativecommons.org/ns#"
   xmlns:rdf="http://www.w3.org/1999/02/22-rdf-syntax-ns#"
   xmlns:svg="http://www.w3.org/2000/svg"
   xmlns="http://www.w3.org/2000/svg"
   xmlns:sodipodi="http://sodipodi.sourceforge.net/DTD/sodipodi-0.dtd"
   xmlns:inkscape="http://www.inkscape.org/namespaces/inkscape"
   inkscape:export-ydpi="293"
   inkscape:export-xdpi="293"
   inkscape:export-filename="I:\Eigene Dateien\My Dropbox\Onlinekurslabor - Kursplattform\Gestaltung\plattform design\onlinekurslabor - logo und screendesign\aktuell\mit Sub\onlinekurslabor-logo-mit-subvgl.png"
   inkscape:version="1.0beta1 (fe3e306, 2019-09-17)"
   sodipodi:docname="onlinekurslabor-logo-header-black.svg"
   viewBox="0 0 269.66666 61"
   height="61"
   width="269.66666"
   xml:space="preserve"
   id="svg274"
   version="1.1">
  <metadata
   id="metadata280">
    <rdf:RDF>
      <cc:Work
   rdf:about="">
        <dc:format>image/svg+xml</dc:format>












        <dc:type
   rdf:resource="http://purl.org/dc/dcmitype/StillImage" />












        <dc:title />












      </cc:Work>












    </rdf:RDF>












  </metadata>












  <defs
   id="defs278"><rect
   x="116.15625"
   y="21.750002"
   width="14.90625"
   height="13.6875"
   id="rect242" />










    <rect
   id="rect384"
   height="16.146244"
   width="6.5859685"
   y="75.354744"
   x="68.19664" />












    <clipPath
   id="clipPath290"
   clipPathUnits="userSpaceOnUse">
      <path
   inkscape:connector-curvature="0"
   id="path288"
   d="M 0,42 H 215 V 0 H 0 Z" />












    </clipPath>












  </defs>












  <sodipodi:namedview
   inkscape:guide-bbox="true"
   showguides="true"
   inkscape:current-layer="g282"
   inkscape:window-maximized="1"
   inkscape:window-y="-8"
   inkscape:window-x="-8"
   inkscape:cy="40.749743"
   inkscape:cx="137.72452"
   inkscape:zoom="2.8"
   showgrid="true"
   id="namedview276"
   inkscape:window-height="837"
   inkscape:window-width="1600"
   inkscape:pageshadow="2"
   inkscape:pageopacity="0"
   guidetolerance="10"
   gridtolerance="10"
   objecttolerance="10"
   borderopacity="1"
   inkscape:document-rotation="0"
   bordercolor="#666666"
   pagecolor="#ffffff">
    <sodipodi:guide
   id="guide388"
   orientation="1,0"
   position="31.295,34.172837" />












    <sodipodi:guide
   id="guide390"
   orientation="1,0"
   position="230.17012,36.022555" />












    <sodipodi:guide
   id="guide397"
   orientation="0,-1"
   position="235.96179,40.973651" />












    <sodipodi:guide
   id="guide399"
   orientation="0,-1"
   position="192.38847,10.308999" />












  <sodipodi:guide
   id="guide155"
   orientation="0,-1"
   position="249.0625,31.625" />










<sodipodi:guide
   id="guide157"
   orientation="1,0"
   position="243.03572,25.821428" />










<sodipodi:guide
   position="32.9375,56.417969"
   orientation="-1,0"
   id="guide228"
   inkscape:label=""
   inkscape:locked="false"
   inkscape:color="rgb(164,0,0)" />









<sodipodi:guide
   position="225.277,25.003906"
   orientation="-1,0"
   id="guide230"
   inkscape:label=""
   inkscape:locked="false"
   inkscape:color="rgb(164,0,0)" />









<sodipodi:guide
   inkscape:color="rgb(138,226,52)"
   inkscape:locked="false"
   inkscape:label=""
   id="guide142"
   orientation="0,1"
   position="255.44643,5.286" />




<sodipodi:guide
   id="guide144"
   orientation="1,0"
   position="39.377009,42.504738" />




<sodipodi:guide
   position="249.886,25.265854"
   orientation="-1,0"
   id="guide95"
   inkscape:label=""
   inkscape:locked="false"
   inkscape:color="rgb(252,233,79)" />



<sodipodi:guide
   position="249.886,21.352"
   orientation="0,1"
   id="guide97"
   inkscape:label=""
   inkscape:locked="false"
   inkscape:color="rgb(252,233,79)" />



<inkscape:grid
   type="xygrid"
   id="grid136" />



</sodipodi:namedview>












  <g
   transform="matrix(1.5568011,-0.38155933,-0.37566701,-1.5812194,4.1236795,68.268204)"
   inkscape:label="reagenzglas"
   id="g86"
   style="fill:#000000">
  <g
   id="g300"
   transform="translate(29.4058,28.9287)"
   style="display:inline;fill:#000000">
          <path
   d="m 0,0 c -0.149,-0.149 -0.391,-0.149 -0.54,-0.001 l -0.305,0.305 -21.208,-21.267 c -1.204,-1.208 -3.158,-1.21 -4.366,-0.007 -1.209,1.207 -1.212,3.16 -0.007,4.369 L -5.218,4.665 -5.449,4.894 c -0.148,0.148 -0.149,0.391 0,0.541 0.074,0.074 0.172,0.111 0.269,0.111 0.097,0 0.196,-0.037 0.27,-0.111 L 0,0.54 C 0.148,0.39 0.148,0.148 0,0"
   style="fill:#000000;fill-opacity:1;fill-rule:nonzero;stroke:none"
   id="path302"
   inkscape:connector-curvature="0" />












        </g>




  <g
   style="display:inline;fill:#000000"
   id="g304"
   transform="translate(24.2271,34.207)">
          <path
   d="m 0,0 c -0.021,0 -0.053,-0.006 -0.081,-0.033 -0.044,-0.044 -0.044,-0.117 0,-0.162 l 0.42,-0.418 -21.397,-21.456 c -0.532,-0.533 -0.824,-1.242 -0.823,-1.995 0.001,-0.752 0.296,-1.461 0.829,-1.994 0.533,-0.531 1.24,-0.823 1.991,-0.823 0.756,0 1.464,0.294 1.998,0.83 L 4.334,-4.597 4.828,-5.09 c 0.057,-0.058 0.103,-0.057 0.16,0 0.03,0.029 0.034,0.063 0.034,0.081 0,0.019 -0.004,0.052 -0.034,0.081 L 0.08,-0.033 C 0.058,-0.011 0.03,0 0,0 m -19.061,-27.416 c -0.894,0 -1.735,0.348 -2.368,0.979 -0.636,0.633 -0.987,1.476 -0.988,2.373 -10e-4,0.896 0.346,1.738 0.98,2.374 l 21.019,21.077 -0.04,0.04 c -0.254,0.253 -0.254,0.665 -0.002,0.919 0.244,0.245 0.674,0.244 0.918,0 L 5.367,-4.549 C 5.489,-4.672 5.557,-4.834 5.557,-5.008 5.558,-5.182 5.49,-5.345 5.368,-5.467 5.123,-5.713 4.695,-5.714 4.449,-5.469 l -0.114,0.115 -21.02,-21.077 c -0.634,-0.635 -1.478,-0.985 -2.376,-0.985"
   style="fill:#000000;fill-opacity:1;fill-rule:nonzero;stroke:none"
   id="path306"
   inkscape:connector-curvature="0" />












        </g>




  <g
   inkscape:label="drop_b"
   id="g308"
   transform="matrix(0.97056328,-0.24442478,0.2512901,0.96704511,29.60411,29.166274)"
   style="fill:#000000">
          <path
   d="M 0,0 -0.333,-3.724 C -0.326,-4.533 0.314,-5.032 0.591,-4.274 0.739,-3.872 0.347,0.131 0,0"
   style="fill:#000000;fill-opacity:1;fill-rule:nonzero;stroke:none"
   id="path310"
   inkscape:connector-curvature="0" />












        </g>




  <g
   inkscape:label="drop_a"
   id="g312"
   transform="matrix(0.97056328,-0.24442478,0.2512901,0.96704511,29.388402,27.766699)"
   style="display:inline;fill:#000000">
          <path
   d="m 0,0 -0.209,-2.335 c 0.004,-0.4 0.212,-0.636 0.281,-0.636 0.011,0.004 0.07,0.046 0.126,0.2 C 0.269,-2.514 0.156,-1.081 0,0 M 0.072,-3.505 H 0.07 c -0.443,0 -0.808,0.534 -0.813,1.192 l 0.349,3.916 0.268,0.079 c 0.065,0 0.189,-0.022 0.29,-0.166 C 0.521,1.004 0.875,-2.479 0.7,-2.956 0.524,-3.434 0.23,-3.505 0.072,-3.505"
   style="fill:#000000;fill-opacity:1;fill-rule:nonzero;stroke:none"
   id="path314"
   inkscape:connector-curvature="0" />












        </g>




</g>




<g
   transform="matrix(1.3333333,0,0,-1.3333333,0,51)"
   inkscape:label="onlinekurslabor-logo"
   id="g282"
   inkscape:groupmode="layer">
    <g
   style="display:inline;fill:#000000"
   id="g284"
   inkscape:label="logo okl">
      <g
   style="display:inline;fill:#000000"
   clip-path="url(#clipPath290)"
   id="g286">
        <g
   style="display:inline;fill:#000000"
   transform="translate(32.0942,18.1484)"
   id="g292">
          <path
   inkscape:connector-curvature="0"
   id="path294"
   style="fill:#000000;fill-opacity:1;fill-rule:nonzero;stroke:none"
   d="M 0,0 C -0.453,0.352 -2.122,2.266 -2.611,3.746 -3.083,2.607 -5.415,-0.18 -5.415,-0.18" />












        </g>












        <g
   style="display:inline;fill:#000000"
   transform="translate(26.8848,17.7969)"
   id="g296">
          <path
   inkscape:connector-curvature="0"
   id="path298"
   style="fill:#000000;fill-opacity:1;fill-rule:nonzero;stroke:none"
   d="M 0,0 -0.41,0.344 C -0.387,0.371 1.9,3.112 2.351,4.199 L 2.626,4.865 2.853,4.182 C 3.32,2.765 4.943,0.898 5.374,0.564 L 5.045,0.141 C 4.625,0.467 3.237,2.035 2.568,3.459 1.8,2.156 0.084,0.1 0,0" />












        </g>












        







        







        







        







        <g
   style="display:inline;fill:#000000"
   transform="translate(29.4346,9.8398)"
   id="g316">
          <path
   inkscape:connector-curvature="0"
   id="path318"
   style="fill:#000000;fill-opacity:1;fill-rule:nonzero;stroke:none"
   d="m 0,0 c 1.869,0 2.804,1.178 2.804,3.533 0,2.34 -0.935,3.51 -2.804,3.51 -1.869,0 -2.803,-1.17 -2.803,-3.51 C -2.803,1.178 -1.869,0 0,0 m -0.011,-2.568 c -0.942,0 -1.781,0.148 -2.517,0.448 -0.736,0.298 -1.359,0.716 -1.868,1.251 -0.51,0.535 -0.897,1.18 -1.164,1.935 -0.266,0.755 -0.399,1.581 -0.399,2.479 0,0.911 0.137,1.746 0.411,2.502 0.274,0.755 0.67,1.4 1.187,1.935 0.517,0.535 1.141,0.948 1.869,1.239 0.729,0.291 1.555,0.437 2.481,0.437 0.908,0 1.723,-0.146 2.444,-0.437 C 3.154,8.93 3.77,8.521 4.279,7.994 4.788,7.467 5.18,6.826 5.455,6.069 5.729,5.314 5.866,4.473 5.866,3.545 5.866,2.616 5.729,1.778 5.455,1.031 5.18,0.283 4.788,-0.357 4.279,-0.893 3.77,-1.428 3.151,-1.841 2.421,-2.133 1.693,-2.423 0.882,-2.568 -0.011,-2.568" />












        </g>












        <g
   style="display:inline;fill:#000000"
   transform="translate(44.0171,7.5781)"
   id="g320">
          <path
   inkscape:connector-curvature="0"
   id="path322"
   style="fill:#000000;fill-opacity:1;fill-rule:nonzero;stroke:none"
   d="m 0,0 v 7.02 c 0,0.894 -0.149,1.5 -0.448,1.814 -0.298,0.312 -0.809,0.471 -1.531,0.471 -1.586,0 -2.38,-0.887 -2.38,-2.662 V 0 H -7.421 V 11.589 H -4.5 v -1.69 c 0.361,0.665 0.837,1.169 1.433,1.509 0.595,0.341 1.361,0.512 2.3,0.512 0.549,0 1.058,-0.084 1.528,-0.248 C 1.229,11.506 1.634,11.258 1.969,10.928 2.307,10.597 2.572,10.192 2.768,9.712 2.964,9.232 3.062,8.678 3.062,8.049 V 0 Z" />












        </g>












        <path
   inkscape:connector-curvature="0"
   id="path324"
   style="display:inline;fill:#000000;fill-opacity:1;fill-rule:nonzero;stroke:none"
   d="m 48.609,23.408 h 3.063 V 7.577 h -3.063 z" />












        <path
   inkscape:connector-curvature="0"
   id="path326"
   style="fill:#000000;fill-opacity:1;fill-rule:nonzero;stroke:none"
   d="M 53.228,19.168 H 56.29 V 7.578 h -3.062 z m 0,4.24 h 3.062 v -2.851 h -3.062 z" />












        <g
   transform="translate(65.2881,7.5781)"
   id="g328"
   style="fill:#000000">
          <path
   inkscape:connector-curvature="0"
   id="path330"
   style="fill:#000000;fill-opacity:1;fill-rule:nonzero;stroke:none"
   d="m 0,0 v 7.02 c 0,0.894 -0.149,1.5 -0.447,1.814 -0.299,0.312 -0.81,0.471 -1.531,0.471 -1.587,0 -2.38,-0.887 -2.38,-2.662 V 0 h -3.063 v 11.589 h 2.922 v -1.69 c 0.359,0.665 0.836,1.169 1.432,1.509 0.594,0.341 1.361,0.512 2.301,0.512 0.549,0 1.058,-0.084 1.527,-0.248 0.47,-0.166 0.872,-0.414 1.21,-0.744 C 2.307,10.597 2.573,10.192 2.769,9.712 2.964,9.232 3.063,8.678 3.063,8.049 V 0 Z" />












        </g>












        <g
   transform="translate(77.5137,14.5039)"
   id="g332"
   style="fill:#000000">
          <path
   inkscape:connector-curvature="0"
   id="path334"
   style="fill:#000000;fill-opacity:1;fill-rule:nonzero;stroke:none"
   d="m 0,0 c -0.016,0.424 -0.09,0.797 -0.224,1.117 -0.133,0.323 -0.31,0.59 -0.53,0.803 -0.22,0.211 -0.471,0.368 -0.754,0.471 -0.283,0.101 -0.573,0.152 -0.87,0.152 -0.613,0 -1.144,-0.223 -1.591,-0.67 C -4.417,1.424 -4.672,0.801 -4.735,0 Z m -4.829,-1.932 c 0.047,-0.881 0.302,-1.579 0.767,-2.097 0.462,-0.518 1.071,-0.778 1.824,-0.778 0.502,0 0.946,0.115 1.332,0.342 0.384,0.227 0.631,0.546 0.741,0.954 H 2.991 C 2.631,-4.705 2.003,-5.623 1.107,-6.267 0.212,-6.911 -0.856,-7.232 -2.096,-7.232 c -3.863,0 -5.795,2.103 -5.795,6.312 0,0.896 0.125,1.705 0.377,2.427 0.251,0.723 0.615,1.343 1.095,1.861 0.478,0.519 1.064,0.914 1.755,1.19 0.691,0.274 1.484,0.412 2.379,0.412 1.791,0 3.145,-0.574 4.063,-1.72 0.92,-1.146 1.378,-2.874 1.378,-5.182 z" />












        </g>












        <g
   transform="translate(88.9863,7.5781)"
   id="g336"
   style="fill:#000000">
          <path
   inkscape:connector-curvature="0"
   id="path338"
   style="fill:#000000;fill-opacity:1;fill-rule:nonzero;stroke:none"
   d="M 0,0 -2.545,5.205 -4.028,3.675 V 0 h -3.064 v 15.83 h 3.064 V 7.186 l 3.816,4.403 H 3.533 L -0.354,7.326 3.439,0 Z" />












        </g>












        <g
   transform="translate(100.9756,7.5781)"
   id="g340"
   style="fill:#000000">
          <path
   inkscape:connector-curvature="0"
   id="path342"
   style="fill:#000000;fill-opacity:1;fill-rule:nonzero;stroke:none"
   d="m 0,0 v 1.625 c -0.784,-1.287 -1.986,-1.932 -3.604,-1.932 -0.581,0 -1.11,0.103 -1.59,0.307 -0.479,0.203 -0.891,0.494 -1.237,0.871 -0.345,0.377 -0.616,0.824 -0.812,1.343 -0.197,0.518 -0.295,1.099 -0.295,1.743 v 7.632 h 3.062 V 4.428 c 0,-1.445 0.652,-2.166 1.955,-2.166 0.786,0 1.379,0.246 1.78,0.741 0.4,0.495 0.599,1.128 0.599,1.896 v 6.69 H 2.897 V 0 Z" />












        </g>












        <g
   transform="translate(105.3809,7.5781)"
   id="g344"
   style="fill:#000000">
          <path
   inkscape:connector-curvature="0"
   id="path346"
   style="fill:#000000;fill-opacity:1;fill-rule:nonzero;stroke:none"
   d="M 0,0 V 11.589 H 2.874 V 10.21 c 0.251,0.395 0.515,0.704 0.789,0.927 0.275,0.22 0.557,0.39 0.849,0.509 0.29,0.119 0.585,0.194 0.883,0.225 C 5.693,11.902 6,11.92 6.313,11.92 H 6.715 V 8.763 C 6.432,8.811 6.148,8.834 5.865,8.834 3.996,8.834 3.063,7.899 3.063,6.029 V 0 Z" />












        </g>












        <g
   transform="translate(120.0576,15.6572)"
   id="g348"
   style="fill:#000000">
          <path
   inkscape:connector-curvature="0"
   id="path350"
   style="fill:#000000;fill-opacity:1;fill-rule:nonzero;stroke:none"
   d="m 0,0 c -0.079,0.534 -0.28,0.923 -0.602,1.167 -0.321,0.242 -0.811,0.365 -1.471,0.365 -0.629,0 -1.104,-0.076 -1.426,-0.224 -0.322,-0.149 -0.482,-0.405 -0.482,-0.766 0,-0.314 0.16,-0.564 0.482,-0.754 0.322,-0.187 0.789,-0.369 1.402,-0.541 1.004,-0.283 1.853,-0.523 2.544,-0.719 0.691,-0.197 1.244,-0.427 1.661,-0.695 0.415,-0.268 0.713,-0.602 0.895,-1.001 0.181,-0.401 0.271,-0.938 0.271,-1.614 0,-1.035 -0.431,-1.897 -1.295,-2.578 -0.865,-0.684 -2.144,-1.026 -3.841,-1.026 -0.832,0 -1.586,0.094 -2.261,0.283 -0.675,0.188 -1.253,0.459 -1.731,0.813 -0.479,0.353 -0.848,0.777 -1.108,1.271 -0.26,0.496 -0.396,1.049 -0.412,1.662 h 3.156 c 0,-0.558 0.217,-0.988 0.649,-1.29 0.431,-0.303 0.994,-0.454 1.683,-0.454 0.582,0 1.081,0.091 1.496,0.272 0.416,0.182 0.625,0.461 0.625,0.838 0,0.426 -0.152,0.731 -0.46,0.921 -0.305,0.189 -0.774,0.354 -1.401,0.496 -1.131,0.252 -2.041,0.516 -2.733,0.79 -0.69,0.275 -1.229,0.579 -1.613,0.91 -0.385,0.33 -0.644,0.693 -0.777,1.086 -0.133,0.393 -0.201,0.834 -0.201,1.322 0,0.441 0.09,0.858 0.271,1.252 0.18,0.394 0.467,0.74 0.861,1.039 0.391,0.299 0.901,0.539 1.53,0.721 0.628,0.18 1.398,0.27 2.309,0.27 1.665,0 2.882,-0.337 3.651,-1.012 C 2.441,2.128 2.865,1.192 2.944,0 Z" />












        </g>












        <path
   inkscape:connector-curvature="0"
   id="path352"
   style="fill:#000000;fill-opacity:1;fill-rule:nonzero;stroke:none"
   d="m 124.368,23.408 h 3.062 V 7.577 h -3.062 z" />












        <g
   transform="translate(135.957,13.2539)"
   id="g354"
   style="fill:#000000">
          <path
   inkscape:connector-curvature="0"
   id="path356"
   style="fill:#000000;fill-opacity:1;fill-rule:nonzero;stroke:none"
   d="m 0,0 c -0.156,-0.156 -0.385,-0.282 -0.682,-0.376 -0.298,-0.095 -0.73,-0.196 -1.297,-0.306 -0.878,-0.173 -1.483,-0.393 -1.813,-0.66 -0.329,-0.267 -0.494,-0.652 -0.494,-1.154 0,-0.864 0.494,-1.295 1.483,-1.295 0.393,0 0.758,0.066 1.096,0.199 0.336,0.134 0.629,0.315 0.871,0.542 0.244,0.228 0.44,0.495 0.59,0.802 0.148,0.306 0.223,0.631 0.223,0.977 z m 0.211,-5.676 c -0.093,0.297 -0.156,0.644 -0.186,1.035 -0.362,-0.408 -0.841,-0.733 -1.437,-0.976 -0.598,-0.244 -1.289,-0.365 -2.074,-0.365 -1.334,0 -2.313,0.295 -2.932,0.884 -0.621,0.588 -0.932,1.354 -0.932,2.295 0,0.832 0.135,1.496 0.401,1.991 0.267,0.496 0.637,0.883 1.108,1.166 0.471,0.283 1.031,0.492 1.685,0.625 0.65,0.132 1.362,0.255 2.131,0.365 0.769,0.109 1.288,0.256 1.554,0.435 0.268,0.181 0.401,0.475 0.401,0.884 0,0.377 -0.176,0.671 -0.53,0.884 -0.353,0.212 -0.828,0.317 -1.425,0.317 -0.707,0 -1.212,-0.157 -1.519,-0.471 -0.307,-0.314 -0.499,-0.73 -0.577,-1.248 h -2.852 c 0.018,0.597 0.116,1.146 0.295,1.648 0.181,0.502 0.471,0.935 0.872,1.297 0.4,0.36 0.922,0.639 1.566,0.836 0.641,0.196 1.426,0.294 2.348,0.294 0.91,0 1.679,-0.103 2.314,-0.306 C 1.055,5.709 1.564,5.416 1.948,5.029 2.331,4.645 2.609,4.166 2.781,3.594 2.953,3.02 3.04,2.373 3.04,1.65 v -7.326 z" />












        </g>












        <g
   style="display:inline;fill:#000000"
   transform="translate(146.0156,9.7686)"
   id="g358">
          <path
   inkscape:connector-curvature="0"
   id="path360"
   style="fill:#000000;fill-opacity:1;fill-rule:nonzero;stroke:none"
   d="m 0,0 c 0.77,0 1.398,0.325 1.885,0.978 0.487,0.651 0.73,1.496 0.73,2.532 0,2.387 -0.879,3.581 -2.637,3.581 -1.712,0 -2.569,-1.257 -2.569,-3.77 0,-0.99 0.248,-1.79 0.742,-2.402 C -1.354,0.306 -0.738,0 0,0 m -5.487,-2.19 v 15.83 h 3.014 V 7.892 c 0.864,1.209 2.01,1.813 3.44,1.813 C 1.721,9.705 2.392,9.56 2.981,9.27 3.57,8.979 4.068,8.565 4.478,8.032 4.885,7.499 5.195,6.866 5.408,6.136 5.619,5.405 5.726,4.601 5.726,3.722 5.726,2.747 5.6,1.876 5.348,1.106 5.096,0.337 4.752,-0.314 4.312,-0.849 3.873,-1.384 3.342,-1.79 2.723,-2.073 2.102,-2.356 1.43,-2.497 0.707,-2.497 c -1.445,0 -2.519,0.572 -3.227,1.72 L -2.543,-2.19 Z" />












        </g>












        <g
   style="display:inline;fill:#000000"
   transform="translate(158.7383,9.8398)"
   id="g362">
          <path
   inkscape:connector-curvature="0"
   id="path364"
   style="fill:#000000;fill-opacity:1;fill-rule:nonzero;stroke:none"
   d="m 0,0 c 1.867,0 2.803,1.178 2.803,3.533 0,2.34 -0.936,3.51 -2.803,3.51 -1.869,0 -2.805,-1.17 -2.805,-3.51 C -2.805,1.178 -1.869,0 0,0 m -0.014,-2.568 c -0.94,0 -1.778,0.148 -2.515,0.448 -0.737,0.298 -1.36,0.716 -1.869,1.251 -0.51,0.535 -0.897,1.18 -1.163,1.935 -0.266,0.755 -0.401,1.581 -0.401,2.479 0,0.911 0.138,1.746 0.413,2.502 0.274,0.755 0.67,1.4 1.186,1.935 0.517,0.535 1.14,0.948 1.871,1.239 0.726,0.291 1.555,0.437 2.478,0.437 0.91,0 1.725,-0.146 2.446,-0.437 C 3.152,8.93 3.768,8.521 4.277,7.994 4.787,7.467 5.179,6.826 5.453,6.069 5.728,5.314 5.865,4.473 5.865,3.545 5.865,2.616 5.728,1.778 5.453,1.031 5.179,0.283 4.787,-0.357 4.277,-0.893 3.768,-1.428 3.149,-1.841 2.421,-2.133 1.691,-2.423 0.881,-2.568 -0.014,-2.568" />












        </g>












        <g
   style="display:inline;fill:#000000"
   transform="translate(165.8984,7.5781)"
   id="g366">
          <path
   inkscape:connector-curvature="0"
   id="path368"
   style="fill:#000000;fill-opacity:1;fill-rule:nonzero;stroke:none"
   d="M 0,0 V 11.589 H 2.874 V 10.21 c 0.251,0.395 0.515,0.704 0.79,0.927 0.274,0.22 0.557,0.39 0.848,0.509 0.291,0.119 0.584,0.194 0.883,0.225 C 5.693,11.902 6,11.92 6.314,11.92 h 0.4 V 8.763 C 6.432,8.811 6.148,8.834 5.867,8.834 3.997,8.834 3.063,7.899 3.063,6.029 V 0 Z" />












        </g>












        <g
   sodipodi:insensitive="true"
   inkscape:label="alte alpha-badge"
   style="display:none;fill:#000000"
   transform="matrix(0.33102817,0,0,1.9417968,192.5929,3.1704473)"
   id="g370">
          <path
   inkscape:connector-curvature="0"
   id="path372"
   style="fill:#000000;fill-opacity:1;fill-rule:nonzero;stroke:none"
   d="M 0,0 C 0,-2.394 -1.562,-4.333 -3.9,-4.333 H -27.611 C -29.95,-4.333 -32,-2.394 -32,0 v 4.334 c 0,2.394 2.05,4.333 4.389,4.333 H -3.9 C -1.562,8.667 0,6.728 0,4.334 Z" />












        </g>












      <text
   xml:space="preserve"
   id="text240"
   style="font-size:2px;line-height:18.75px;font-family:Montserrat;-inkscape-font-specification:Montserrat;letter-spacing:0px;word-spacing:0px;shape-inside:url(#rect242);fill:#000000" />









</g>












    </g>












    

    


<g
   inkscape:label="alpha-dot"
   id="g79"
   style="fill:#000000"><path
   id="ellipse103"
   style="display:inline;fill:#000000;fill-opacity:1;stroke-width:0.688813"
   d="m 250.30469,25.025391 a 15.470324,15.359269 0 0 0 -15.47071,15.359375 15.470324,15.359269 0 0 0 15.47071,15.359375 15.470324,15.359269 0 0 0 15.4707,-15.359375 15.470324,15.359269 0 0 0 -15.4707,-15.359375 z m -1.73242,8.130859 c 2.16484,0 3.62811,0.924119 4.39062,2.773438 h 0.0664 l 0.73632,-2.445313 h 4.19336 l -2.90429,6.824219 c 0.33306,1.244564 0.67481,2.143146 1.02539,2.695312 0.35935,0.543402 0.76986,0.814453 1.23437,0.814453 0.41194,0 0.7586,-0.07071 1.03907,-0.210937 l -0.0527,3.18164 c -0.57846,0.236643 -1.23939,0.355469 -1.98437,0.355469 -0.9641,0 -1.7311,-0.232745 -2.30079,-0.697265 -0.56093,-0.473286 -0.98615,-1.24518 -1.27539,-2.314454 h -0.0781 c -1.07804,2.094726 -2.7053,3.142579 -4.87891,3.142579 -1.70908,0 -3.05353,-0.617716 -4.03515,-1.853516 -0.98163,-1.2358 -1.47266,-2.843433 -1.47266,-4.824219 0,-2.147312 0.5696,-3.921891 1.70899,-5.324218 1.13939,-1.411091 2.66845,-2.117188 4.58789,-2.117188 z m 0.52734,3.154297 c -0.83263,0 -1.48571,0.386924 -1.95899,1.158203 -0.47328,0.77128 -0.71093,1.730752 -0.71093,2.878906 0,1.095568 0.18952,1.989242 0.5664,2.681641 0.38564,0.683634 0.94051,1.025391 1.66797,1.025391 1.24457,0 2.21385,-1.134282 2.90625,-3.404297 l 0.19727,-0.619141 c -0.50835,-2.480365 -1.39711,-3.720703 -2.66797,-3.720703 z"
   transform="matrix(0.75000002,0,0,-0.75000002,0,38.250001)"
   inkscape:connector-curvature="0"
   inkscape:label="dot extracted" />




  










  




  




</g>












    <text
   inkscape:label="text-sub-line"
   transform="scale(0.98336976,-1.0169115)"
   id="text380"
   y="3.3814478"
   x="22.976646"
   style="font-size:9.28012px;line-height:87.0012px;font-family:Montserrat;-inkscape-font-specification:Montserrat;letter-spacing:0px;word-spacing:0px;display:inline;fill:#000000;stroke-width:0.737558;"
   xml:space="preserve"><tspan
     style="font-style:normal;font-variant:normal;font-weight:normal;font-stretch:normal;font-family:Montserrat;-inkscape-font-specification:Montserrat;fill:#000000;stroke-width:0.737558;"
     y="3.3814478"
     x="22.976646"
     id="tspan378"
     sodipodi:role="line">Eine Initiative des Medienlabors</tspan></text>












    



  </g>












</svg>
